<?xml version="1.0" encoding="utf-8"?>
<svg xmlns="http://www.w3.org/2000/svg">
  <defs>

    <symbol id="beach" viewBox="0 0 21 21">
      <path class="cls-1"
        d="M13.0099 17.04C15.1399 16.71 17.5099 16.5 20.0099 16.5V20.5H3.00989C3.00989 19.85 6.20989 18.36 11.0099 17.4V10.9C10.1699 11.15 9.45989 11.71 9.00989 12.45C8.69974 11.9311 8.26028 11.5015 7.73446 11.2032C7.20864 10.9049 6.61443 10.748 6.00989 10.748C5.40534 10.748 4.81113 10.9049 4.28531 11.2032C3.75949 11.5015 3.32004 11.9311 3.00989 12.45C3.03989 8.87 6.50989 5.93 11.0099 5.54V5.5C11.0099 5.23478 11.1152 4.98043 11.3028 4.79289C11.4903 4.60536 11.7447 4.5 12.0099 4.5C12.2751 4.5 12.5295 4.60536 12.717 4.79289C12.9045 4.98043 13.0099 5.23478 13.0099 5.5V5.54C17.5099 5.93 20.9699 8.87 21.0099 12.45C20.6997 11.9311 20.2603 11.5015 19.7345 11.2032C19.2086 10.9049 18.6144 10.748 18.0099 10.748C17.4053 10.748 16.8111 10.9049 16.2853 11.2032C15.7595 11.5015 15.32 11.9311 15.0099 12.45C14.5599 11.71 13.8499 11.15 13.0099 10.89V17.04ZM5.00989 0.5C5.00989 1.15661 4.88056 1.80679 4.62929 2.41342C4.37801 3.02005 4.00971 3.57124 3.54542 4.03553C3.08113 4.49983 2.52993 4.86812 1.9233 5.1194C1.31668 5.37067 0.666497 5.5 0.0098877 5.5V0.5H5.00989Z"
        fill="var(--color-black)" />
    </symbol>

    <symbol id="mountain" viewBox="0 0 22 20">
      <path
        d="M12.5337 0L8.95418 8.33333L11.6746 14.6667L10.1474 16.6667C8.53418 12.9167 5.85191 6.66667 5.85191 6.66667L0.124634 20H21.1246L12.5337 0Z"
        fill="var(--color-black)" />
    </symbol>

    <symbol id="city" viewBox="0 0 21 21" fill="none">
      <path
        d="M19.075 14.6016H16.625V12.3047H19.075M19.075 19.1953H16.625V16.8984H19.075M11.725 5.41406H9.275V3.11719H11.725M11.725 10.0078H9.275V7.71094H11.725M11.725 14.6016H9.275V12.3047H11.725M11.725 19.1953H9.275V16.8984H11.725M4.375 10.0078H1.925V7.71094H4.375M4.375 14.6016H1.925V12.3047H4.375M4.375 19.1953H1.925V16.8984H4.375M14.175 10.0078V3.11719L10.5 -0.328125L6.825 3.11719V5.41406H-0.525002V21.4922H21.525V10.0078H14.175Z"
        fill="var(--color-black)" />
    </symbol>

    <symbol id="wildlife" viewBox="0 0 22 20">
      <path
        d="M11.9327 2.93259C11.9327 2.93259 10.9448 5.26308 9.99043 5.26308H6.49208C5.53774 5.26308 4.67575 6.12411 4.01106 7.08199L0.894739 11.5788C0.518317 12.1219 0.204866 13.1956 0.19507 13.684C0.172681 14.7366 0.19507 15.7892 0.19507 15.7892C0.19507 15.7892 1.59441 15.7892 1.59441 13.684V12.6314L2.99374 10.5262H3.69341L3.91451 11.1367C3.91451 11.1367 2.58094 14.9766 2.58094 18.5639C2.58094 19.9997 3.53389 19.9997 3.53389 19.9997H4.48823C4.48823 19.9997 4.96541 19.9997 4.48823 19.2839L4.01246 18.5639C4.01106 17.1282 5.09275 15.0882 5.79242 13.684C5.79242 13.684 5.81621 16.1219 5.79242 17.8945C5.78122 18.7576 6.17304 19.9997 6.74676 19.9997H7.70111C7.70111 19.9997 8.17689 19.9997 7.70111 19.2839L7.22394 18.5639C6.78595 17.3681 7.89142 12.6314 7.89142 12.6314C9.67138 12.6314 9.99043 13.684 12.0894 13.684L12.5988 18.5639C12.7541 20.0586 13.4888 19.9997 13.4888 19.9997H15.5878C16.0635 19.9997 16.9325 19.345 16.0635 18.3702L15.5878 17.8945V13.684C17.2866 13.3219 18.3864 11.5788 18.3864 9.47354H19.7858C20.235 9.47354 21.1851 9.47354 21.1851 8.42092V6.31569L18.8006 2.77469C17.7483 1.21682 16.9871 0 15.5878 0C13.5545 0 12.5988 1.19788 11.9327 2.93259Z"
        fill="var(--color-black)" />
    </symbol>

    <symbol id="cultural" viewBox="0 0 21 19">
      <path
        d="M10.4877 0.333313L-0.0122528 5.09522V6.99998H20.9877V5.09522M15.4614 8.90474V15.5714H18.7772V8.90474M-0.0122528 20.3333H20.9877V17.4762H-0.0122528M8.82985 8.90474V15.5714H12.1456V8.90474M2.19827 8.90474V15.5714H5.51406V8.90474H2.19827Z"
        fill="var(--color-black)" />
    </symbol>

    <symbol id="island" viewBox="0 0 20 20">
      <path
        d="M18 18C16.61 18 15.22 17.53 14 16.67C11.56 18.38 8.44 18.38 6 16.67C4.78 17.53 3.39 18 2 18H0V20H2C3.37 20 4.74 19.65 6 19C8.5 20.3 11.5 20.3 14 19C15.26 19.65 16.62 20 18 20H20V18H18ZM18.78 17H18C16.82 17 15.64 16.6 14.58 15.85L14 15.45L13.42 15.85C12.39 16.57 11.21 16.95 10 16.95C8.77 16.95 7.59 16.57 6.56 15.85L6 15.45L5.43 15.85C4.36 16.6 3.18 17 2 17H1.22C1.75 15.54 3.58 13 10 13C12 13 13 13.24 13 13.24C13.68 11.87 14.83 8.77 14 4.82L15.06 5.53C15.39 6.96 16 9.75 14.8 13.65C17.43 14.5 18.42 16 18.78 17ZM20 5.59C19.21 4.5 18 3.71 16.58 3.53C16.7 3.67 16.81 3.83 16.92 4C17.4898 4.90995 17.7535 5.97836 17.6726 7.04894C17.5916 8.11952 17.1702 9.13611 16.47 9.95C17.06 8.5 17 6.79 16.08 5.36C16 5.28 15.96 5.2 15.9 5.11C15.5 4.53 14.96 4.06 14.38 3.72C12.35 4.37 10.88 6.27 10.88 8.5C10.88 9.03 10.96 9.53 11.1 10C10.5 9.17 10.16 8.17 10.16 7.07C10.16 5.41 10.96 3.95 12.2 3.03C11.16 2.95 10.09 3.18 9.14 3.78C8.7 4.05 8.32 4.38001 8 4.76C8.39 3.82 9.05 3 10 2.4C11.0041 1.75417 12.2111 1.50137 13.39 1.69C13.092 1.2767 12.7348 0.909441 12.33 0.600005C11.92 0.290005 11.47 0.0500049 11 -0.119995C12 -0.0899951 13.04 0.240005 13.91 0.890005C14.35 1.22001 14.7 1.62 15 2.05C15.06 2.05 15.12 2.04 15.19 2.04C16.266 2.03944 17.3139 2.38393 18.1796 3.0229C19.0454 3.66187 19.6834 4.56162 20 5.59Z"
        fill="var(--color-black)" />
    </symbol>

    <symbol id="family" viewBox="0 0 22 20">
      <path
        d="M12.9509 9.34489C12.9508 9.84375 12.7431 10.3221 12.3737 10.6747C12.0042 11.0274 11.5032 11.2254 10.9809 11.2252C10.4586 11.225 9.95771 11.0267 9.58849 10.6738C9.21928 10.321 9.01196 9.84249 9.01213 9.34364C9.01231 8.84478 9.21996 8.36642 9.58942 8.01379C9.95888 7.66117 10.4599 7.46316 10.9822 7.46332C11.5045 7.46349 12.0054 7.66182 12.3746 8.01468C12.7438 8.36754 12.9511 8.84603 12.9509 9.34489ZM19.2116 4.95749H15.8778C15.2756 4.95749 14.6981 5.18597 14.2722 5.59267C13.8464 5.99936 13.6072 6.55096 13.6072 7.12612V11.2252C13.6072 11.5577 13.7455 11.8765 13.9916 12.1116C14.2378 12.3467 14.5716 12.4787 14.9197 12.4787V20H20.1697V12.4787C20.5178 12.4787 20.8516 12.3467 21.0978 12.1116C21.3439 11.8765 21.4822 11.5577 21.4822 11.2252V7.12612C21.4822 6.55096 21.243 5.99936 20.8171 5.59267C20.3913 5.18597 19.8138 4.95749 19.2116 4.95749Z"
        fill="var(--color-black)" />
      <path
        d="M20.1696 2.45041C20.1776 2.78427 20.1155 3.11628 19.9872 3.42695C19.859 3.73761 19.667 4.02066 19.4226 4.25948C19.1782 4.49831 18.8863 4.68809 18.564 4.81769C18.2418 4.94728 17.8956 5.01409 17.546 5.01417C17.1963 5.01425 16.8502 4.94762 16.5278 4.81817C16.2055 4.68873 15.9135 4.49909 15.669 4.26038C15.4245 4.02167 15.2323 3.73871 15.1039 3.42811C14.9754 3.11751 14.9132 2.78553 14.921 2.45166C14.9361 1.79661 15.2192 1.17325 15.7096 0.715038C16.1999 0.256824 16.8586 0.000163923 17.5447 7.84928e-08C18.2307 -0.000163766 18.8895 0.256182 19.3801 0.714162C19.8707 1.17214 20.1541 1.79536 20.1696 2.45041ZM6.08654 6.21103H2.7528C2.45453 6.21112 2.1592 6.26731 1.88367 6.3764C1.60814 6.48549 1.3578 6.64534 1.14696 6.84684C0.936109 7.04833 0.76888 7.28751 0.654817 7.55073C0.540755 7.81395 0.482092 8.09604 0.482178 8.38092C0.482264 8.66579 0.541098 8.94785 0.65532 9.21101C0.769542 9.47416 0.936915 9.71325 1.14788 9.91463C1.35885 10.116 1.60928 10.2757 1.88488 10.3847C2.16048 10.4936 2.45584 10.5496 2.75411 10.5495C3.35649 10.5494 3.93413 10.3207 4.35996 9.91374C4.78578 9.50681 5.02491 8.95498 5.02473 8.37966C5.02456 7.80434 4.7851 7.25265 4.35903 6.84595C3.93296 6.43925 3.35518 6.21087 2.7528 6.21103C2.15059 6.21103 1.57278 6.44014 1.14696 6.84684C0.721132 7.25353 0.482178 7.80576 0.482178 8.38092L0.482178 11.2252C0.482178 11.5577 0.620459 11.8765 0.8666 12.1116C1.11274 12.3467 1.44658 12.4787 1.79468 12.4787L0.482178 16.2394H1.79468V20H7.04467V16.2394H8.35717L7.04467 12.4787C7.39276 12.4787 7.7266 12.3467 7.97274 12.1116C8.21888 11.8765 8.35717 11.5577 8.35717 11.2252V8.37966C8.35717 8.09487 8.29843 7.81287 8.18432 7.54976C8.07022 7.28665 7.90296 7.04759 7.69212 6.84621C7.48127 6.64483 7.23096 6.48509 6.95547 6.37611C6.67999 6.26713 6.38473 6.21103 6.08654 6.21103Z"
        fill="var(--color-black)" />
      <path
        d="M7.04467 3.70395C7.05257 4.03782 6.99056 4.36983 6.86227 4.68049C6.73398 4.99115 6.54199 5.2742 6.29759 5.51303C6.05319 5.75185 5.76129 5.94163 5.43903 6.07123C5.11678 6.20083 4.77066 6.26763 4.421 6.26771C4.07134 6.2678 3.72519 6.20116 3.40286 6.07172C3.08054 5.94227 2.78854 5.75263 2.54401 5.51392C2.29949 5.27522 2.10735 4.99226 1.9789 4.68165C1.85045 4.37105 1.78826 4.03907 1.79599 3.7052C1.81116 3.05015 2.09422 2.4268 2.58459 1.96858C3.07496 1.51037 3.73366 1.25371 4.41969 1.25354C5.10571 1.25338 5.76455 1.50972 6.25516 1.9677C6.74577 2.42568 7.02916 3.0489 7.04467 3.70395ZM9.66966 16.2394V20H12.2947V16.2394C12.6428 16.2394 12.9766 16.1073 13.2227 15.8722C13.4689 15.6371 13.6072 15.3183 13.6072 14.9858V13.0554C13.6072 12.57 13.4053 12.1045 13.0459 11.7612C12.6865 11.418 12.1991 11.2252 11.6909 11.2252H10.2734C9.76519 11.2252 9.27779 11.418 8.91842 11.7612C8.55906 12.1045 8.35717 12.57 8.35717 13.0554V14.9858C8.35717 15.3183 8.49545 15.6371 8.74159 15.8722C8.98773 16.1073 9.32157 16.2394 9.66966 16.2394Z"
        fill="var(--color-black)" />
    </symbol>

    <symbol id="culinary" viewBox="0 0 22 20">
      <path
        d="M11.0584 15.968C14.0851 15.968 16.5442 13.3148 16.6489 10C16.5442 6.68522 14.0851 4.03202 11.0584 4.03202C8.03194 4.03202 5.57215 6.68522 5.4689 10C5.5718 13.3148 8.03159 15.968 11.0584 15.968Z"
        fill="var(--color-black)" />
      <path
        d="M11.0587 1.2C6.80625 1.2 3.35842 5.13999 3.35842 9.99998C3.35842 14.8596 6.8066 18.8 11.0587 18.8C15.3108 18.8 18.7587 14.8596 18.7587 9.99998C18.7587 5.13999 15.3108 1.2 11.0587 1.2ZM11.0584 16.4C7.96544 16.4 5.45806 13.6316 5.45806 10.2156C5.45806 10.1428 5.4668 10.072 5.4689 10C5.4668 9.92801 5.45806 9.85678 5.45806 9.78438C5.45806 6.36838 7.96579 3.59999 11.0584 3.59999C14.1513 3.59999 16.6583 6.36838 16.6583 9.78438C16.6583 9.85678 16.6506 9.92801 16.6489 10C16.651 10.072 16.6583 10.1428 16.6583 10.2156C16.658 13.6316 14.1513 16.4 11.0584 16.4Z"
        fill="var(--color-black)" />
      <path
        d="M0.814638 0.168437C0.898638 -0.207962 1.06489 0.164037 1.06489 0.164037C1.06489 0.164037 1.12299 4.06003 1.50098 4.10243C1.87898 4.14483 1.58778 0.0936371 2.03508 0.0160373C2.45088 -0.0595626 2.21358 4.16683 2.59228 4.12403C2.96957 4.07843 3.03327 0.184037 3.03327 0.184037C3.03327 0.184037 3.20127 -0.187562 3.28422 0.186037C4.30901 4.79003 3.47987 6.67202 3.47987 6.67202C3.47987 6.67202 3.33987 7.06762 3.00737 7.06962C2.97622 7.06762 2.99967 18.004 2.99757 19.4744C2.99827 20.1892 1.07259 20.1672 1.07364 19.4556C1.07504 17.9852 1.11249 7.05002 1.08239 7.05082C0.748839 7.05082 0.60919 6.65562 0.60919 6.65562C0.60919 6.65562 -0.216804 4.77483 0.814638 0.168437ZM19.0632 3.73106e-05C19.4965 -0.00116269 21.294 1.48003 21.2961 6.98482C21.2982 8.74522 20.4579 8.74482 20.4593 9.84601C20.4607 10.9452 20.4659 19.6884 20.4659 19.6884C20.4659 19.6884 19.5441 20.4112 18.8588 19.6548L18.8462 0.156437C18.8469 0.156837 18.8444 -0.000362689 19.0632 3.73106e-05Z"
        fill="var(--color-black)" />
    </symbol>

    <symbol id="adventure" viewBox="0 0 22 20">
      <path
        d="M19.2874 6.97273H21.4558V20H19.2874V10.5455C18.1536 10.4 17.0907 10.1273 16.0844 9.73636C15.0782 9.34546 14.2278 8.89091 13.5051 8.36364L12.6264 11.1545L15.7868 13.1545V20H12.9523V14.5455L9.77769 12.5455L7.12744 20H4.06618C4.06618 20 8.50217 5.65455 8.54469 5.53636C8.70058 5.1 9.01238 4.76364 9.53676 4.54545C10.0611 4.3 10.5855 4.18182 11.1241 4.18182C11.6768 4.18182 12.187 4.26364 12.6547 4.42727C13.1366 4.58182 13.5051 4.80909 13.7743 5.1L15.2766 6.58182C15.6876 7.07273 16.2403 7.5 16.9348 7.84545C17.6292 8.19091 18.4229 8.45455 19.2874 8.63636V6.97273ZM6.64557 4.44545L5.01574 4.22727C4.20791 4.09091 3.47094 4.2 2.80483 4.49091C2.1529 4.78182 1.75607 5.18182 1.61435 5.70909L0.466375 9.32727C0.423858 9.59091 0.508893 9.82727 0.735652 10.0455C0.962412 10.2636 1.26003 10.3818 1.61435 10.4182L4.74646 10.8091L6.64557 4.44545ZM12.9523 0C11.3934 0 10.1178 0.818182 10.1178 1.81818C10.1178 2.81818 11.3934 3.63636 12.9523 3.63636C14.5113 3.63636 15.7868 2.82727 15.7868 1.81818C15.7868 0.809091 14.5255 0 12.9523 0Z"
        fill="var(--color-black)" />
    </symbol>

    <symbol id="luxury" viewBox="0 0 48 48">
      <path
        d="m8 56 -6 -14v-16h6l4 14 8 -2 -4 18m24 0 6 -14v-16h-6l-4 14 -8 -2 4 18m6 -54 4 10 -18 18 -18 -18 4 -10h28z"
        fill="none" stroke="#000000" stroke-linejoin="round" stroke-width="4"></path>
      <path d="M20 2 18 12l6 18m4 -28 2 10 -6 18M6 12h36" fill="none" stroke="var(--color-black)"
        stroke-linejoin="round" stroke-width="4"></path>
    </symbol>

    <symbol id="arrow" viewBox="0 0 17 8">
      <path
        d="M16.3536 4.55039C16.5488 4.35513 16.5488 4.03855 16.3536 3.84328L13.1716 0.661304C12.9763 0.466042 12.6597 0.466042 12.4645 0.661304C12.2692 0.856567 12.2692 1.17315 12.4645 1.36841L15.2929 4.19684L12.4645 7.02527C12.2692 7.22053 12.2692 7.53711 12.4645 7.73237C12.6597 7.92763 12.9763 7.92763 13.1716 7.73237L16.3536 4.55039ZM0 4.69684L16 4.69684V3.69684L0 3.69684L0 4.69684Z"
        fill="var(--color-text-orange)" />
    </symbol>

    <symbol id="location" viewBox="0 0 14 19">
      <path
        d="M14 6.81843C14 6.02369 13.8189 5.23672 13.4672 4.50248C13.1154 3.76823 12.5998 3.10108 11.9497 2.53911C11.2997 1.97714 10.5281 1.53136 9.67878 1.22723C8.8295 0.923092 7.91925 0.766556 7 0.766556C6.08075 0.766556 5.17049 0.923092 4.32122 1.22723C3.47194 1.53136 2.70026 1.97714 2.05025 2.53911C1.40024 3.10108 0.884626 3.76823 0.532843 4.50248C0.18106 5.23672 -1.36979e-08 6.02369 0 6.81843C0 8.01756 0.409 9.13284 1.105 10.0735H1.097L7 18.0576L12.903 10.0735H12.896C13.6169 9.10222 14.0001 7.97245 14 6.81843ZM7 9.41209C6.20435 9.41209 5.44129 9.13883 4.87868 8.65242C4.31607 8.16602 4 7.50631 4 6.81843C4 6.13055 4.31607 5.47084 4.87868 4.98443C5.44129 4.49803 6.20435 4.22477 7 4.22477C7.79565 4.22477 8.55871 4.49803 9.12132 4.98443C9.68393 5.47084 10 6.13055 10 6.81843C10 7.50631 9.68393 8.16602 9.12132 8.65242C8.55871 9.13883 7.79565 9.41209 7 9.41209Z"
        fill="var(--color-black)" />
    </symbol>

    <symbol id="rating" viewBox="0 0 87 14">
      <path
        d="M2.883 13.3423L4.123 8.74897L0 5.66078L5.431 5.25444L7.558 0.922165L9.685 5.25358L15.115 5.65992L10.993 8.7481L12.233 13.3415L7.558 10.9034L2.883 13.3423Z"
        fill="black" />
      <path
        d="M19.883 13.3423L21.123 8.74897L17 5.66078L22.431 5.25444L24.558 0.922165L26.685 5.25358L32.115 5.65992L27.993 8.7481L29.233 13.3415L24.558 10.9034L19.883 13.3423Z"
        fill="black" />
      <path
        d="M37.883 13.3423L39.123 8.74897L35 5.66078L40.431 5.25444L42.558 0.922165L44.685 5.25358L50.115 5.65992L45.993 8.7481L47.233 13.3415L42.558 10.9034L37.883 13.3423Z"
        fill="black" />
      <path
        d="M55.883 13.3423L57.123 8.74897L53 5.66078L58.431 5.25444L60.558 0.922165L62.685 5.25358L68.115 5.65992L63.993 8.7481L65.233 13.3415L60.558 10.9034L55.883 13.3423Z"
        fill="black" />
      <path
        d="M75.408 11.5285L78.558 9.88585L81.708 11.5501L80.883 8.43773L83.658 6.3628L80.008 6.08182L78.558 3.14234L77.108 6.0602L73.458 6.34118L76.233 8.43773L75.408 11.5285ZM73.883 13.3423L75.123 8.74897L71 5.66078L76.431 5.25444L78.558 0.922165L80.685 5.25358L86.115 5.65992L81.993 8.7481L83.233 13.3415L78.558 10.9034L73.883 13.3423Z"
        fill="black" />
    </symbol>

    <symbol id="calendar" viewBox="0 0 27 27">
      <g clip-path=" url(#clip0_1607_9715)">
        <path
          d="M24.1874 4.49999H21.1874V6.74999C21.1874 6.96668 21.1448 7.18124 21.0619 7.38142C20.9789 7.58161 20.8574 7.7635 20.7042 7.91672C20.551 8.06994 20.3691 8.19148 20.1689 8.2744C19.9687 8.35732 19.7541 8.39999 19.5374 8.39999C19.3208 8.39999 19.1062 8.35732 18.906 8.2744C18.7058 8.19148 18.5239 8.06994 18.3707 7.91672C18.2175 7.7635 18.096 7.58161 18.013 7.38142C17.9301 7.18124 17.8874 6.96668 17.8874 6.74999V4.49999H9.14995V6.74999C9.14995 7.1876 8.97611 7.60729 8.66667 7.91672C8.35724 8.22616 7.93756 8.39999 7.49995 8.39999C7.06234 8.39999 6.64266 8.22616 6.33322 7.91672C6.02379 7.60729 5.84995 7.1876 5.84995 6.74999V4.49999H2.84995C2.67147 4.49796 2.49439 4.53175 2.32919 4.59934C2.16399 4.66694 2.01402 4.76698 1.88816 4.89354C1.76229 5.0201 1.66309 5.17062 1.59641 5.33619C1.52973 5.50176 1.49693 5.67903 1.49995 5.85749V22.6425C1.49697 22.8178 1.52856 22.992 1.59291 23.1551C1.65726 23.3182 1.75311 23.4671 1.87499 23.5931C1.99688 23.7192 2.1424 23.82 2.30325 23.8898C2.4641 23.9596 2.63713 23.9971 2.81245 24H24.1874C24.3628 23.9971 24.5358 23.9596 24.6966 23.8898C24.8575 23.82 25.003 23.7192 25.1249 23.5931C25.2468 23.4671 25.3426 23.3182 25.407 23.1551C25.4713 22.992 25.5029 22.8178 25.4999 22.6425V5.85749C25.5029 5.68217 25.4713 5.50798 25.407 5.34487C25.3426 5.18176 25.2468 5.03292 25.1249 4.90686C25.003 4.7808 24.8575 4.67999 24.6966 4.61018C24.5358 4.54036 24.3628 4.50292 24.1874 4.49999ZM7.49995 19.5H5.99995V18H7.49995V19.5ZM7.49995 15.75H5.99995V14.25H7.49995V15.75ZM7.49995 12H5.99995V10.5H7.49995V12ZM11.9999 19.5H10.4999V18H11.9999V19.5ZM11.9999 15.75H10.4999V14.25H11.9999V15.75ZM11.9999 12H10.4999V10.5H11.9999V12ZM16.4999 19.5H14.9999V18H16.4999V19.5ZM16.4999 15.75H14.9999V14.25H16.4999V15.75ZM16.4999 12H14.9999V10.5H16.4999V12ZM20.9999 19.5H19.4999V18H20.9999V19.5ZM20.9999 15.75H19.4999V14.25H20.9999V15.75ZM20.9999 12H19.4999V10.5H20.9999V12Z"
          fill="var(--color-text-orange)" />
        <path
          d="M7.5 7.5C7.69891 7.5 7.88968 7.42098 8.03033 7.28033C8.17098 7.13968 8.25 6.94891 8.25 6.75V2.25C8.25 2.05109 8.17098 1.86032 8.03033 1.71967C7.88968 1.57902 7.69891 1.5 7.5 1.5C7.30109 1.5 7.11032 1.57902 6.96967 1.71967C6.82902 1.86032 6.75 2.05109 6.75 2.25V6.75C6.75 6.94891 6.82902 7.13968 6.96967 7.28033C7.11032 7.42098 7.30109 7.5 7.5 7.5Z"
          fill="var(--color-text-orange)" />
        <path
          d="M19.5 7.5C19.6989 7.5 19.8897 7.42098 20.0303 7.28033C20.171 7.13968 20.25 6.94891 20.25 6.75V2.25C20.25 2.05109 20.171 1.86032 20.0303 1.71967C19.8897 1.57902 19.6989 1.5 19.5 1.5C19.3011 1.5 19.1103 1.57902 18.9697 1.71967C18.829 1.86032 18.75 2.05109 18.75 2.25V6.75C18.75 6.94891 18.829 7.13968 18.9697 7.28033C19.1103 7.42098 19.3011 7.5 19.5 7.5Z"
          fill="var(--color-text-orange)" />
      </g>
      <defs>
        <clipPath id="clip0_1607_9715">
          <rect width="27" height="27" fill="var(--color-white)" />
        </clipPath>
      </defs>
    </symbol>

    <symbol id="views" viewBox="0 0 32 32">
      <rect width="32" height="32" fill="var(--color-white)" />
      <path
        d="M16 8.286C8.454 8.286 2.5 16 2.5 16C2.5 16 8.454 23.715 16 23.715C21.77 23.715 29.5 16 29.5 16C29.5 16 21.77 8.286 16 8.286ZM16 20.806C13.35 20.806 11.193 18.65 11.193 16C11.193 13.35 13.35 11.193 16 11.193C18.65 11.193 20.807 13.35 20.807 16C20.807 18.65 18.65 20.806 16 20.806ZM16 13.194C15.6271 13.187 15.2566 13.2543 14.91 13.3921C14.5635 13.53 14.2479 13.7355 13.9817 13.9967C13.7155 14.2579 13.5041 14.5696 13.3597 14.9135C13.2154 15.2573 13.141 15.6265 13.141 15.9995C13.141 16.3724 13.2154 16.7416 13.3597 17.0855C13.5041 17.4294 13.7155 17.7411 13.9817 18.0023C14.2479 18.2635 14.5635 18.469 14.91 18.6068C15.2566 18.7447 15.6271 18.812 16 18.805C16.7349 18.7911 17.435 18.4894 17.9498 17.9648C18.4646 17.4402 18.753 16.7345 18.753 15.9995C18.753 15.2645 18.4646 14.5588 17.9498 14.0342C17.435 13.5095 16.7349 13.2079 16 13.194Z"
        fill="var(--color-text-gray)" />
    </symbol>

    <symbol id="like" viewBox="0 0 22 20">
      <path
        d="M22 9C22 8.46957 21.7893 7.96086 21.4142 7.58579C21.0391 7.21071 20.5304 7 20 7H13.68L14.64 2.43C14.66 2.33 14.67 2.22 14.67 2.11C14.67 1.7 14.5 1.32 14.23 1.05L13.17 0L6.59 6.58C6.22 6.95 6 7.45 6 8V18C6 18.5304 6.21071 19.0391 6.58579 19.4142C6.96086 19.7893 7.46957 20 8 20H17C17.83 20 18.54 19.5 18.84 18.78L21.86 11.73C21.95 11.5 22 11.26 22 11V9ZM0 20H4V8H0V20Z"
        fill="var(--color-text-gray)" />
    </symbol>

    <symbol id="comment" viewBox="0 0 22 20">
      <path
        d="M4.4 12H17.6V10H4.4V12ZM4.4 9H17.6V7H4.4V9ZM4.4 6H17.6V4H4.4V6ZM2.2 16C1.595 16 1.07727 15.8043 0.6468 15.413C0.216333 15.0217 0.000733333 14.5507 0 14V2C0 1.45 0.2156 0.979333 0.6468 0.588C1.078 0.196667 1.59573 0.000666667 2.2 0H19.8C20.405 0 20.9231 0.196 21.3543 0.588C21.7855 0.98 22.0007 1.45067 22 2V20L17.6 16H2.2Z"
        fill="var(--color-text-gray)" />
    </symbol>

    <symbol id="share" viewBox="0 0 22 20">
      <path
        d="M22 9.33333L13.4444 0V5.33333C4.88889 6.66667 1.22222 13.3333 0 20C3.05556 15.3333 7.33333 13.2 13.4444 13.2V18.6667L22 9.33333Z"
        fill="var(--color-text-gray)" />
    </symbol>

  </defs>
</svg>